<svg width="180" height="90" viewBox="0 0 180 90" fill="none" xmlns="http://www.w3.org/2000/svg">
<path fill-rule="evenodd" clip-rule="evenodd" d="M47.7166 5.49219L43.851 9.56952L46.7326 16.037L42.7967 12.1003L39.2825 16.4588L41.5316 9.71011L37.3848 6.05458L42.6561 8.51504L47.7166 5.49219Z" fill="white"/>
<path fill-rule="evenodd" clip-rule="evenodd" d="M42.5171 5C41.8143 5.0703 41.3223 5.63269 41.3223 6.33568C41.3223 7.03866 41.9548 7.60105 42.5874 7.53076C43.2902 7.46046 43.7822 6.89807 43.7822 6.19508C43.7822 5.49209 43.22 5 42.5171 5Z" fill="white"/>
<path fill-rule="evenodd" clip-rule="evenodd" d="M41.3906 84.5079L45.186 80.3602L42.3043 73.9631L46.2403 77.8998L49.8248 73.5413L47.5054 80.2899L51.6522 83.9455L46.3808 81.485L41.3906 84.5079Z" fill="white"/>
<path fill-rule="evenodd" clip-rule="evenodd" d="M46.521 84.9998C47.2238 84.9295 47.7158 84.3671 47.7158 83.6642C47.7158 82.9612 47.0833 82.3988 46.4507 82.4691C45.7479 82.5394 45.2559 83.1018 45.2559 83.8048C45.3261 84.5077 45.8884 84.9998 46.521 84.9998Z" fill="white"/>
<path fill-rule="evenodd" clip-rule="evenodd" d="M4.49219 41.8367L8.5687 45.7031L15.0349 42.8209L11.099 46.7576L15.4566 50.2725L8.70927 48.023L5.05447 52.1706L7.51443 46.8982L4.49219 41.8367Z" fill="white"/>
<path fill-rule="evenodd" clip-rule="evenodd" d="M4 47.0386C4.07028 47.7416 4.63256 48.2337 5.33541 48.2337C6.03826 48.2337 6.60054 47.601 6.53025 46.9683C6.45997 46.2653 5.89769 45.7732 5.19484 45.7732C4.49199 45.7732 4 46.3356 4 47.0386Z" fill="white"/>
<path fill-rule="evenodd" clip-rule="evenodd" d="M74.5669 19.7626L68.9441 19.9032L66.4138 26.5112V20.9576L60.8613 21.52L67.187 18.3566L66.9058 12.803L68.8738 18.2863L74.5669 19.7626Z" fill="white"/>
<path fill-rule="evenodd" clip-rule="evenodd" d="M71.2643 15.7555C70.7723 15.3337 69.9288 15.3337 69.5071 15.8961C69.0151 16.3882 69.0151 17.2318 69.5774 17.6536C70.0694 18.0754 70.9128 18.0754 71.3345 17.513C71.7563 16.9506 71.7562 16.1773 71.2643 15.7555Z" fill="white"/>
<path fill-rule="evenodd" clip-rule="evenodd" d="M14.1914 71.1513L19.8142 70.9404L22.3444 64.3323V69.9562L27.9672 69.3235L21.5713 72.4869L21.9227 78.0405L19.8845 72.5572L14.1914 71.1513Z" fill="white"/>
<path fill-rule="evenodd" clip-rule="evenodd" d="M17.5657 75.158C18.0577 75.5798 18.9011 75.5797 19.3228 75.0174C19.8148 74.5253 19.8148 73.6817 19.2525 73.2599C18.7605 72.8381 17.9171 72.8381 17.4954 73.4005C17.0034 73.8926 17.0034 74.6659 17.5657 75.158Z" fill="white"/>
<path fill-rule="evenodd" clip-rule="evenodd" d="M69.7161 75.2288L69.5052 69.6049L62.8984 67.0741L68.5212 67.1444L67.8887 61.5205L71.0515 67.9177L76.604 67.5662L71.1218 69.5346L69.7161 75.2288Z" fill="white"/>
<path fill-rule="evenodd" clip-rule="evenodd" d="M73.7217 71.9243C74.1434 71.4322 74.1434 70.5887 73.5812 70.1669C73.0892 69.6748 72.2457 69.6748 71.824 70.2372C71.4023 70.7293 71.4023 71.5729 71.9646 71.9946C72.4566 72.4164 73.2297 72.4164 73.7217 71.9243Z" fill="white"/>
<path fill-rule="evenodd" clip-rule="evenodd" d="M18.2688 14.9119L18.4796 20.5358L25.0864 23.0665L19.5339 22.9962L20.0962 28.6201L16.9334 22.2229L11.3809 22.5744L16.8631 20.6061L18.2688 14.9119Z" fill="white"/>
<path fill-rule="evenodd" clip-rule="evenodd" d="M14.2635 18.2164C13.8418 18.7085 13.8418 19.5521 14.4041 19.9739C14.8961 20.466 15.7395 20.466 16.1612 19.9036C16.5829 19.4115 16.5829 18.5679 16.0206 18.1461C15.5286 17.654 14.7555 17.7243 14.2635 18.2164Z" fill="white"/>
<path fill-rule="evenodd" clip-rule="evenodd" d="M57.7672 7.81207L52.9878 10.7646L54.1123 17.7242L51.3712 12.8736L46.8027 16.1776L50.7387 10.2725L47.7164 5.63281L52.1444 9.42895L57.7672 7.81207Z" fill="white"/>
<path fill-rule="evenodd" clip-rule="evenodd" d="M52.9191 5.98397C52.2865 5.84337 51.5837 6.26517 51.4431 6.96815C51.3025 7.67114 51.7242 8.37413 52.3568 8.51473C52.9894 8.65532 53.6922 8.23353 53.8328 7.53054C53.9734 6.82756 53.5516 6.12457 52.9191 5.98397Z" fill="white"/>
<path fill-rule="evenodd" clip-rule="evenodd" d="M31.2012 82.4692L35.9805 79.5167L34.856 72.4868L37.6674 77.4077L42.2359 74.1037L38.2296 80.0088L41.3222 84.6485L36.8942 80.8524L31.2012 82.4692Z" fill="white"/>
<path fill-rule="evenodd" clip-rule="evenodd" d="M36.1205 84.2972C36.7531 84.4378 37.4559 84.016 37.5965 83.313C37.7371 82.61 37.3153 81.907 36.6828 81.7664C36.0502 81.6258 35.3474 82.0476 35.2068 82.7506C34.996 83.4536 35.4177 84.1566 36.1205 84.2972Z" fill="white"/>
<path fill-rule="evenodd" clip-rule="evenodd" d="M6.60073 31.7134L9.62298 36.4937L16.5812 35.3689L11.7315 38.1809L15.0349 42.68L9.13098 38.7433L4.49219 41.8364L8.21728 37.4076L6.60073 31.7134Z" fill="white"/>
<path fill-rule="evenodd" clip-rule="evenodd" d="M4.84334 36.6341C4.70277 37.2668 5.12448 37.9698 5.82733 38.1104C6.53017 38.251 7.23302 37.8292 7.37359 37.1965C7.51416 36.5638 7.09245 35.8608 6.38961 35.7202C5.61647 35.5094 4.98391 35.9311 4.84334 36.6341Z" fill="white"/>
<path fill-rule="evenodd" clip-rule="evenodd" d="M80.0473 28.4795L74.5651 27.2141L70.4183 32.9786L71.8943 27.5656L66.3418 26.6517L73.3 25.3161L74.4245 19.8328L74.9165 25.6676L80.0473 28.4795Z" fill="white"/>
<path fill-rule="evenodd" clip-rule="evenodd" d="M77.869 23.7699C77.5176 23.2075 76.7445 23.0669 76.1119 23.4184C75.4794 23.7699 75.3388 24.5432 75.6902 25.1759C76.0416 25.7383 76.8851 25.8789 77.4473 25.5274C78.0799 25.1056 78.2205 24.3323 77.869 23.7699Z" fill="white"/>
<path fill-rule="evenodd" clip-rule="evenodd" d="M8.42773 62.5045L13.9099 63.7699L18.0567 58.0757L16.5808 63.4887L22.1333 64.3323L15.1751 65.7383L14.0505 71.1513L13.5585 65.3868L8.42773 62.5045Z" fill="white"/>
<path fill-rule="evenodd" clip-rule="evenodd" d="M10.6054 67.2846C10.9568 67.8469 11.73 67.9875 12.3625 67.636C12.9951 67.2846 13.1357 66.5113 12.7842 65.8786C12.4328 65.3162 11.5894 65.1756 11.0271 65.5271C10.4648 65.9489 10.254 66.7222 10.6054 67.2846Z" fill="white"/>
<path fill-rule="evenodd" clip-rule="evenodd" d="M61.0002 80.8526L62.2653 75.3692L56.502 71.2216L61.9139 72.6979L62.8276 67.1443L64.163 74.1039L69.6452 75.2286L63.8116 75.7207L61.0002 80.8526Z" fill="white"/>
<path fill-rule="evenodd" clip-rule="evenodd" d="M65.7104 78.6735C66.2727 78.322 66.4133 77.5487 66.0619 76.916C65.7104 76.2833 64.9373 76.1427 64.3047 76.4942C63.7425 76.8457 63.6019 77.6893 63.9533 78.2517C64.375 78.8844 65.1482 79.025 65.7104 78.6735Z" fill="white"/>
<path fill-rule="evenodd" clip-rule="evenodd" d="M26.9829 9.21777L25.7178 14.7011L31.4109 18.8487L25.9989 17.3724L25.1555 22.926L23.7498 15.9665L18.3379 14.8417L24.1012 14.3496L26.9829 9.21777Z" fill="white"/>
<path fill-rule="evenodd" clip-rule="evenodd" d="M22.2032 11.3972C21.6409 11.7487 21.5003 12.522 21.8517 13.1547C22.2032 13.7873 22.9763 13.9279 23.6089 13.5764C24.1711 13.225 24.3117 12.3814 23.9603 11.819C23.5386 11.2566 22.7655 11.0457 22.2032 11.3972Z" fill="white"/>
<path fill-rule="evenodd" clip-rule="evenodd" d="M67.327 12.8736L61.915 14.4202L61.1419 21.45L59.7362 16.037L54.4648 18.0054L59.8768 13.3657L58.1899 8.09326L61.423 12.8736H67.327Z" fill="white"/>
<path fill-rule="evenodd" clip-rule="evenodd" d="M63.1081 9.78016C62.4755 9.49897 61.7727 9.70986 61.4212 10.3426C61.0698 10.9752 61.2807 11.7485 61.9132 12.0297C62.5458 12.3109 63.2487 12.1 63.6001 11.4673C63.8812 10.9049 63.6704 10.1317 63.1081 9.78016Z" fill="white"/>
<path fill-rule="evenodd" clip-rule="evenodd" d="M21.7109 77.689L27.1229 76.0721L27.896 69.1125L29.3017 74.5256L34.5731 72.5572L29.1611 77.1969L30.848 82.4693L27.6149 77.689H21.7109Z" fill="white"/>
<path fill-rule="evenodd" clip-rule="evenodd" d="M25.9289 80.7118C26.5614 80.993 27.2643 80.7821 27.6157 80.1495C27.9671 79.5168 27.7563 78.7435 27.1237 78.4623C26.4911 78.1811 25.7883 78.392 25.4369 79.0247C25.0854 79.6574 25.2963 80.4307 25.9289 80.7118Z" fill="white"/>
<path fill-rule="evenodd" clip-rule="evenodd" d="M11.5899 22.2231L13.2065 27.6362L20.235 28.4094L14.823 29.7451L16.791 35.0175L12.1522 29.6748L6.88086 31.362L11.6602 28.0579L11.5899 22.2231Z" fill="white"/>
<path fill-rule="evenodd" clip-rule="evenodd" d="M8.56945 26.4412C8.28831 27.0739 8.49916 27.7769 9.13172 28.1284C9.76429 28.4799 10.5374 28.269 10.8186 27.6363C11.0997 27.0036 10.8888 26.3006 10.2563 25.9491C9.62372 25.5976 8.85058 25.8085 8.56945 26.4412Z" fill="white"/>
<path fill-rule="evenodd" clip-rule="evenodd" d="M83.2098 38.7432L78.2899 36.0719L72.7374 40.5007L75.6191 35.6501L70.4883 33.3302L77.587 33.8926L80.1173 28.9717L78.9927 34.6659L83.2098 38.7432Z" fill="white"/>
<path fill-rule="evenodd" clip-rule="evenodd" d="M82.3664 33.6115C82.1556 32.9788 81.4527 32.6273 80.7499 32.8382C80.047 33.0491 79.6956 33.7521 79.9065 34.3847C80.1173 35.0174 80.8202 35.3689 81.523 35.158C82.2259 34.9471 82.5773 34.3144 82.3664 33.6115Z" fill="white"/>
<path fill-rule="evenodd" clip-rule="evenodd" d="M5.125 52.3813L10.0449 55.0526L15.5974 50.6941L12.7158 55.4744L17.8465 57.7943L10.7478 57.3022L8.21753 62.2231L9.2718 56.5289L5.125 52.3813Z" fill="white"/>
<path fill-rule="evenodd" clip-rule="evenodd" d="M5.96897 57.5134C6.17983 58.1461 6.88268 58.4976 7.58552 58.2867C8.28837 58.0758 8.6398 57.3728 8.42894 56.7401C8.21809 56.1074 7.51524 55.7559 6.81239 55.9668C6.10954 56.1777 5.75812 56.8807 5.96897 57.5134Z" fill="white"/>
<path fill-rule="evenodd" clip-rule="evenodd" d="M50.8099 84.0864L53.4807 79.1655L49.123 73.6119L53.9024 76.4941L56.2218 71.3623L55.7298 78.4625L60.6498 80.9932L54.9567 79.9388L50.8099 84.0864Z" fill="white"/>
<path fill-rule="evenodd" clip-rule="evenodd" d="M55.9396 83.2427C56.5722 83.0318 56.9236 82.3288 56.7127 81.6258C56.5019 80.9228 55.799 80.5713 55.1665 80.7822C54.5339 80.9931 54.1825 81.6961 54.3933 82.3991C54.6042 83.1021 55.307 83.4536 55.9396 83.2427Z" fill="white"/>
<path fill-rule="evenodd" clip-rule="evenodd" d="M37.1739 5.98438L34.5031 10.9756L38.931 16.4589L34.0814 13.5766L31.762 18.7085L32.3242 11.6083L27.4043 9.07752L33.0974 10.2023L37.1739 5.98438Z" fill="white"/>
<path fill-rule="evenodd" clip-rule="evenodd" d="M32.0434 6.82757C31.4109 7.03846 31.0594 7.74145 31.2703 8.44444C31.4811 9.14743 32.184 9.49892 32.8166 9.28802C33.4491 9.07713 33.8005 8.37414 33.5897 7.67115C33.3788 7.03846 32.7463 6.61667 32.0434 6.82757Z" fill="white"/>
<path d="M145.904 39.5167H141.546V38.9543C141.968 38.9543 142.249 38.884 142.53 38.8137C142.811 38.7434 142.882 38.6731 142.882 38.5325C142.882 38.4622 142.882 38.4622 142.882 38.3919C142.882 38.3216 142.882 38.2513 142.811 38.2513L141.968 35.8612H138.243C138.102 36.2127 137.962 36.4939 137.891 36.7751C137.821 37.0562 137.751 37.2671 137.681 37.478C137.61 37.6889 137.54 37.8998 137.54 37.9701C137.54 38.1107 137.47 38.181 137.47 38.3216C137.47 38.5325 137.61 38.6731 137.962 38.8137C138.243 38.9543 138.594 38.9543 139.016 39.0246V39.587H135.01V39.0246C135.15 39.0246 135.291 38.9543 135.502 38.9543C135.713 38.884 135.853 38.8137 135.994 38.7434C136.205 38.6028 136.345 38.4622 136.486 38.3216C136.626 38.181 136.697 37.9701 136.837 37.6889C137.399 36.3533 137.962 34.877 138.594 33.1898C139.227 31.5026 139.789 30.0967 140.281 28.761H140.843L144.358 37.8998C144.428 38.1107 144.498 38.2513 144.639 38.3919C144.709 38.5325 144.85 38.6028 145.06 38.7434C145.201 38.8137 145.342 38.884 145.482 38.884C145.693 38.9543 145.834 38.9543 145.974 38.9543V39.5167H145.904ZM141.687 35.1582L140.07 31.0808L138.524 35.1582H141.687Z" fill="white"/>
<path d="M159.048 39.5167H154.409V38.9543C154.549 38.9543 154.76 38.9543 155.041 38.884C155.322 38.884 155.463 38.8137 155.604 38.7434C155.744 38.6731 155.885 38.5325 155.955 38.3919C156.025 38.2513 156.096 38.1108 156.096 37.8999V30.3076H155.955L152.3 39.3058H151.949L148.505 30.0967H148.435V36.4236C148.435 37.0563 148.505 37.4781 148.575 37.8296C148.645 38.1811 148.786 38.3919 148.927 38.5325C149.067 38.6028 149.278 38.7434 149.629 38.8137C149.981 38.884 150.192 38.9543 150.332 38.9543V39.5167H145.975V38.9543C146.185 38.9543 146.467 38.884 146.677 38.8137C146.888 38.7434 147.099 38.6731 147.24 38.6028C147.38 38.4622 147.521 38.2514 147.591 37.9702C147.661 37.689 147.661 37.1969 147.661 36.4939V31.0809C147.661 30.7997 147.591 30.5185 147.521 30.3076C147.451 30.0967 147.31 29.9561 147.169 29.8155C147.029 29.6749 146.818 29.6046 146.607 29.5343C146.396 29.464 146.185 29.464 145.975 29.3937V28.9016H149.559L152.581 36.8454L155.182 30.2373C155.252 30.0264 155.322 29.7452 155.393 29.464C155.463 29.1828 155.463 29.0422 155.533 28.9016H158.977V29.464C158.837 29.464 158.696 29.464 158.415 29.5343C158.134 29.6046 158.064 29.6046 157.923 29.6749C157.782 29.7452 157.642 29.8155 157.572 29.9561C157.501 30.0967 157.501 30.2373 157.501 30.3779V37.9702C157.501 38.1108 157.501 38.3216 157.572 38.3919C157.642 38.5325 157.712 38.6028 157.923 38.6731C157.993 38.7434 158.204 38.7434 158.415 38.8137C158.626 38.884 158.837 38.884 158.977 38.884V39.5167H159.048Z" fill="white"/>
<path d="M165.092 39.5167H160.312V38.9543C160.453 38.9543 160.664 38.9543 160.875 38.884C161.156 38.884 161.296 38.8137 161.437 38.8137C161.578 38.7434 161.718 38.6731 161.788 38.5325C161.859 38.3919 161.929 38.2513 161.929 38.0405V30.4482C161.929 30.3076 161.929 30.0967 161.859 30.0264C161.788 29.9561 161.648 29.8155 161.437 29.7452C161.296 29.6749 161.086 29.6046 160.875 29.6046C160.664 29.5343 160.453 29.5343 160.312 29.5343V28.9016H165.092V29.464C164.951 29.464 164.74 29.464 164.53 29.5343C164.319 29.6046 164.108 29.6046 163.967 29.6749C163.756 29.7452 163.686 29.8155 163.616 29.9561C163.546 30.0967 163.546 30.2373 163.546 30.3779V38.0405C163.546 38.1811 163.616 38.3216 163.686 38.4622C163.756 38.6028 163.897 38.6731 164.038 38.7434C164.108 38.8137 164.319 38.8137 164.53 38.884C164.74 38.9543 164.951 38.9543 165.162 38.9543V39.5167H165.092Z" fill="white"/>
<path d="M176.687 39.5167H173.876C173.243 38.5325 172.681 37.689 172.189 36.986C171.697 36.283 171.135 35.5097 170.502 34.7364H169.448V38.0405C169.448 38.1811 169.448 38.3919 169.518 38.5325C169.589 38.6731 169.659 38.7434 169.87 38.8137C169.94 38.884 170.081 38.884 170.362 38.884C170.573 38.884 170.783 38.9543 170.924 38.9543V39.5167H166.355V38.9543C166.496 38.9543 166.637 38.9543 166.847 38.884C167.058 38.8137 167.199 38.8137 167.339 38.8137C167.48 38.7434 167.621 38.6731 167.691 38.5325C167.761 38.3919 167.761 38.2513 167.761 38.0405V30.4482C167.761 30.3076 167.761 30.0967 167.691 29.9561C167.621 29.8155 167.55 29.7452 167.339 29.6749C167.199 29.6046 167.058 29.6046 166.847 29.5343C166.637 29.464 166.496 29.464 166.355 29.464V28.9016H171.205C171.627 28.9016 172.049 28.9719 172.47 29.0422C172.892 29.1125 173.243 29.2531 173.525 29.464C173.806 29.6749 174.087 29.9561 174.227 30.2373C174.438 30.5888 174.509 30.9403 174.509 31.3621C174.509 31.7839 174.438 32.1354 174.298 32.4166C174.157 32.6977 174.017 32.9789 173.735 33.2601C173.525 33.471 173.243 33.6819 172.962 33.8225C172.681 33.9631 172.33 34.1037 171.908 34.2443C172.4 34.9473 172.892 35.5097 173.173 36.0018C173.454 36.4939 173.946 37.0563 174.438 37.689C174.649 37.9702 174.86 38.1811 175.001 38.3216C175.141 38.4622 175.352 38.6028 175.492 38.6731C175.633 38.7434 175.774 38.8137 175.984 38.8137C176.195 38.8137 176.336 38.884 176.476 38.884V39.5167H176.687ZM172.751 31.6433C172.751 31.0106 172.541 30.5185 172.189 30.0967C171.838 29.7452 171.275 29.5343 170.643 29.5343H169.378V34.0334H170.362C171.065 34.0334 171.627 33.8225 172.049 33.4007C172.541 32.9789 172.751 32.3463 172.751 31.6433Z" fill="white"/>
<path d="M72.6666 60.4654C71.4717 60.4654 70.3472 60.2545 69.2929 59.903C68.2386 59.5515 67.3249 58.9891 66.5518 58.2158C65.7787 57.5128 65.2164 56.599 64.7947 55.5445C64.373 54.49 64.1621 53.2949 64.1621 52.0295C64.1621 50.7642 64.373 49.5691 64.7947 48.5146C65.2164 47.4601 65.8489 46.4759 66.6221 45.7026C67.3952 44.9294 68.3089 44.2967 69.4335 43.8749C70.558 43.4531 71.6826 43.2422 72.9477 43.2422C73.8614 43.2422 74.7048 43.3828 75.4077 43.5937C76.1808 43.8046 76.8134 44.0858 77.3054 44.367L78.0082 43.7343H78.9922L79.0625 49.7097H78.0785C77.5162 47.8819 76.8134 46.5462 76.0402 45.7026C75.2671 44.8591 74.2831 44.4373 73.0883 44.4373C71.6826 44.4373 70.558 45.07 69.7849 46.3353C69.0118 47.6007 68.6603 49.3582 68.6603 51.678C68.6603 52.9434 68.8009 54.0682 69.0118 54.9821C69.2929 55.896 69.574 56.6693 69.9957 57.2316C70.4175 57.794 70.9797 58.2158 71.542 58.497C72.1043 58.7782 72.8071 58.9188 73.5803 58.9188C74.6345 58.9188 75.6185 58.6376 76.4619 58.0752C77.3054 57.5128 78.0785 56.599 78.7813 55.4039L79.7653 56.0366C79.4139 56.7395 79.0625 57.3019 78.6408 57.8643C78.2191 58.4267 77.7271 58.8485 77.1648 59.2703C76.5322 59.6921 75.8997 60.0436 75.1265 60.2545C74.3534 60.4654 73.7208 60.4654 72.6666 60.4654Z" fill="white"/>
<path d="M98.6721 59.9736H89.8163V59.13C90.238 59.13 90.73 59.0597 91.2922 58.9191C91.8545 58.7785 92.1357 58.6379 92.1357 58.4973C92.1357 58.427 92.1357 58.3567 92.1357 58.2864C92.1357 58.2161 92.0654 58.0755 92.0654 58.0052L90.6597 54.6309H85.0369C84.8963 54.9121 84.7558 55.3338 84.6152 55.7556C84.4746 56.1774 84.3341 56.5289 84.1935 56.8804C84.0529 57.3022 83.9826 57.6537 83.9123 57.7943C83.9123 58.0052 83.8421 58.1458 83.8421 58.2161C83.8421 58.427 84.0529 58.6379 84.4043 58.8488C84.7558 58.9894 85.3883 59.13 86.2317 59.2003V60.1142H79.5547V59.13C79.8358 59.13 80.117 59.0597 80.3981 58.9894C80.7495 58.9191 80.9604 58.8488 81.1712 58.7082C81.4524 58.4973 81.7335 58.2864 81.9444 58.0052C82.1552 57.724 82.3661 57.4428 82.5066 57.021C83.4203 54.8418 84.2638 52.7328 85.1775 50.5535C86.0912 48.3743 87.0752 45.9841 88.1294 43.3831H90.4488C91.9248 47.1089 93.1197 49.9911 93.9631 52.1704C94.8065 54.2794 95.5093 56.1071 96.1419 57.5131C96.2122 57.724 96.3528 57.9349 96.4933 58.1458C96.6339 58.3567 96.8447 58.4973 97.1259 58.7082C97.3367 58.8488 97.6179 58.9191 97.899 58.9894C98.1802 59.0597 98.4613 59.0597 98.6721 59.13V59.9736ZM90.0974 53.3655L87.7077 47.4604L85.3883 53.3655H90.0974Z" fill="white"/>
<path d="M113.502 45.351C114.486 45.9837 115.329 46.8976 115.892 47.952C116.524 49.0065 116.805 50.3422 116.805 51.9591C116.805 53.3651 116.524 54.5601 115.962 55.5443C115.4 56.5988 114.697 57.3721 113.783 58.0751C112.869 58.7078 111.815 59.1998 110.62 59.5513C109.425 59.9028 108.231 60.0434 106.965 60.0434H98.7422V59.1295C98.953 59.1295 99.3044 59.1296 99.6559 59.0593C100.007 58.989 100.288 58.989 100.359 58.9187C100.64 58.7781 100.851 58.6375 100.921 58.4266C101.062 58.2157 101.062 58.0048 101.062 57.7236V46.1946C101.062 45.9134 100.991 45.7025 100.921 45.4916C100.851 45.2807 100.64 45.1401 100.359 44.9995C100.078 44.8589 99.7262 44.7886 99.445 44.7183C99.0936 44.648 98.8827 44.648 98.6719 44.648V43.6638H107.317C108.231 43.6638 109.215 43.8044 110.269 44.0153C111.534 44.2965 112.518 44.7183 113.502 45.351ZM111.183 57.0206C111.534 56.3879 111.815 55.6849 112.026 54.8413C112.167 53.9977 112.307 53.0136 112.307 51.8888C112.307 50.8343 112.167 49.8501 111.956 48.9362C111.745 48.0223 111.393 47.3194 110.972 46.6867C110.55 46.054 109.988 45.5619 109.285 45.2104C108.582 44.8589 107.879 44.7183 107.036 44.7183C106.755 44.7183 106.473 44.7183 106.122 44.7183C105.771 44.7183 105.56 44.7183 105.349 44.7183V57.0909C105.349 57.3721 105.419 57.583 105.489 57.7939C105.56 58.0048 105.7 58.2157 105.841 58.3563C106.052 58.4969 106.263 58.6375 106.473 58.7078C106.755 58.7781 107.036 58.8484 107.457 58.8484C108.301 58.8484 109.074 58.7078 109.707 58.3563C110.269 58.1454 110.761 57.6533 111.183 57.0206Z" fill="white"/>
<path d="M132.901 47.8817H132.057C131.846 47.2491 131.425 46.6164 130.933 45.9837C130.37 45.351 129.878 44.9995 129.316 44.8589C129.105 44.7886 128.754 44.7886 128.332 44.7886C127.91 44.7886 127.559 44.7886 127.348 44.7886H124.888V51.0452H126.575C126.997 51.0452 127.348 50.9749 127.699 50.9046C128.051 50.8343 128.332 50.6234 128.613 50.3422C128.824 50.1313 128.965 49.8501 129.175 49.4283C129.386 49.0065 129.457 48.5847 129.527 48.2332H130.37V55.0522H129.527C129.457 54.7007 129.386 54.3492 129.175 53.8571C128.965 53.3651 128.824 53.0136 128.613 52.873C128.332 52.5918 128.051 52.3809 127.699 52.3106C127.348 52.2403 126.926 52.17 126.505 52.17H124.888V56.88C124.888 57.3721 124.958 57.7939 125.029 58.0751C125.099 58.3563 125.239 58.5672 125.45 58.7078C125.661 58.8484 125.872 58.9187 126.223 58.989C126.575 59.0593 126.997 59.0593 127.559 59.0593C127.84 59.0593 128.121 59.0593 128.543 59.0593C128.894 59.0593 129.246 59.0593 129.527 58.989C129.878 58.9187 130.159 58.9187 130.441 58.8484C130.722 58.7781 130.933 58.6375 131.073 58.4969C131.425 58.1454 131.846 57.583 132.338 56.8097C132.83 56.0364 133.111 55.474 133.252 55.0522H134.095L133.814 60.1137H118.492V59.1296C118.703 59.1296 118.984 59.0593 119.336 59.0593C119.687 59.0593 119.968 58.989 120.109 58.9187C120.39 58.7781 120.601 58.6375 120.671 58.4266C120.741 58.2157 120.812 58.0048 120.812 57.7236V46.1946C120.812 45.9134 120.741 45.7025 120.671 45.4916C120.601 45.2807 120.39 45.1401 120.038 44.9995C119.828 44.9292 119.546 44.7886 119.195 44.7183C118.844 44.648 118.562 44.5777 118.352 44.5777V43.6638H132.83V47.8817H132.901Z" fill="white"/>
<path d="M157.784 59.9731H148.928V59.1296C149.209 59.1296 149.49 59.0593 149.912 58.989C150.264 58.9187 150.545 58.8484 150.685 58.8484C150.966 58.7078 151.177 58.5672 151.318 58.3563C151.458 58.1454 151.529 57.9345 151.529 57.583V45.4213L145.906 59.7622H144.43C144.36 59.481 144.219 58.989 143.938 58.286C143.657 57.583 143.446 56.9503 143.305 56.4582L139.159 45.2807V55.1928C139.159 56.177 139.229 56.88 139.369 57.3721C139.51 57.8642 139.721 58.2157 140.002 58.4266C140.213 58.5672 140.564 58.7078 141.056 58.9187C141.548 59.0593 141.9 59.1296 142.111 59.1999V60.1137H135.082V59.1296C135.293 59.1296 135.574 59.0593 135.996 58.989C136.417 58.9187 136.769 58.7781 137.05 58.5672C137.331 58.3563 137.542 58.0048 137.683 57.5127C137.823 57.0206 137.823 56.2473 137.823 55.3334V47.1788C137.823 46.6867 137.753 46.2649 137.612 45.9837C137.472 45.7025 137.331 45.4213 137.05 45.2104C136.769 44.9995 136.417 44.7886 136.136 44.7183C135.785 44.648 135.504 44.5777 135.152 44.5777V43.6638H142.673L146.679 54.4195L150.053 45.7025C150.193 45.351 150.264 44.9995 150.404 44.5777C150.545 44.1559 150.545 43.8747 150.545 43.7341H157.784V44.648C157.573 44.648 157.292 44.7183 157.011 44.7183C156.73 44.7183 156.519 44.8589 156.238 44.9292C155.957 44.9995 155.746 45.2104 155.675 45.4213C155.605 45.6322 155.535 45.8431 155.535 46.1243V57.6533C155.535 57.9345 155.605 58.1454 155.675 58.3563C155.746 58.5672 155.957 58.7078 156.238 58.8484C156.378 58.9187 156.659 58.989 157.011 59.0593C157.362 59.1296 157.643 59.1296 157.854 59.1999V59.9731H157.784Z" fill="white"/>
<path d="M176.688 44.5777C176.407 44.5777 176.126 44.648 175.915 44.7183C175.704 44.7886 175.493 44.8589 175.282 44.9995C174.931 45.2104 174.65 45.4213 174.439 45.7025C174.228 45.9837 173.947 46.3352 173.666 46.6867C173.174 47.3897 172.682 48.2332 172.119 49.0768C171.557 49.9204 170.995 50.9046 170.362 51.8888C169.941 52.5215 169.659 53.0136 169.589 53.3651C169.519 53.7165 169.449 54.3492 169.449 55.1928V57.5127C169.449 57.7939 169.519 58.0048 169.589 58.2157C169.659 58.4266 169.87 58.5672 170.151 58.7078C170.292 58.7781 170.573 58.8484 170.995 58.9187C171.417 58.989 171.698 59.0593 171.909 59.0593V59.9731H162.842V59.1295C163.053 59.1295 163.334 59.0593 163.756 59.0593C164.177 58.989 164.458 58.989 164.599 58.9187C164.88 58.7781 165.091 58.6375 165.161 58.4266C165.232 58.2157 165.302 58.0048 165.302 57.6533V54.771C165.302 54.4898 165.302 54.2789 165.302 54.1383C165.302 53.9274 165.302 53.7868 165.232 53.6462C165.161 53.5056 165.091 53.2948 164.95 53.0839C164.81 52.873 164.669 52.5918 164.458 52.17C163.896 51.1155 163.264 50.1313 162.772 49.2174C162.209 48.3035 161.717 47.3897 161.225 46.6164C160.944 46.1946 160.733 45.8431 160.452 45.6322C160.171 45.4213 159.89 45.1401 159.609 44.9995C159.398 44.8589 159.117 44.7886 158.836 44.7183C158.554 44.648 158.273 44.648 158.062 44.5777V43.6638H167.41V44.5777C166.567 44.5777 166.005 44.648 165.653 44.7886C165.372 44.8589 165.232 44.9995 165.232 45.2104C165.232 45.2807 165.302 45.4916 165.372 45.7025C165.513 45.9837 165.653 46.3352 165.934 46.8976C166.216 47.3897 166.567 48.0926 167.059 48.9362C167.551 49.7798 168.184 50.8343 168.886 52.0294C170.362 49.7095 171.346 48.0926 171.909 47.1788C172.471 46.2649 172.752 45.7025 172.752 45.4916C172.752 45.2104 172.611 44.9995 172.26 44.9292C171.909 44.7886 171.417 44.7183 170.714 44.648V43.6638H176.758V44.5777H176.688Z" fill="white"/>
<path d="M64.5131 59.9735H45.4659V58.0755C46.3796 58.0052 47.3636 57.8646 48.5585 57.5834C49.7533 57.3022 50.3859 57.021 50.3859 56.5992C50.3859 56.4586 50.3859 56.318 50.3156 56.1774C50.3156 56.0368 50.2453 55.8259 50.1047 55.5447L47.1528 48.3039H35.0638C34.7826 49.0069 34.5015 49.7802 34.1501 50.6941C33.7987 51.608 33.5175 52.3813 33.3067 53.0842C33.0255 53.9981 32.8147 54.7011 32.7444 55.0526C32.6741 55.4744 32.6741 55.7556 32.6741 55.8962C32.6741 56.3883 33.0958 56.8804 33.8689 57.2319C34.6421 57.5834 35.9775 57.8646 37.8752 58.0052V59.9032H23.4668V58.0052C24.0291 58.0052 24.5914 57.8646 25.2942 57.724C25.997 57.5834 26.489 57.3725 26.9107 57.1616C27.6136 56.7398 28.1759 56.2477 28.5976 55.6853C29.0896 55.1229 29.441 54.4199 29.7924 53.6466C31.6901 49.0069 33.5878 44.3672 35.5558 39.7275C37.4535 35.0878 39.562 29.9559 41.8814 24.4023H46.8013C50.0344 32.3461 52.5647 38.6027 54.3921 43.1721C56.2195 47.8118 57.7658 51.608 59.0309 54.6308C59.2417 55.1229 59.5229 55.5447 59.8743 55.9665C60.2257 56.3883 60.6474 56.7398 61.28 57.0913C61.772 57.3725 62.264 57.5834 62.8966 57.6537C63.5291 57.7943 64.0211 57.8646 64.5834 57.9349V59.9735H64.5131ZM46.1688 45.8435L41.1083 33.1897L36.1181 45.8435H46.1688Z" fill="white"/>
</svg>
